<?xml version="1.0" encoding="UTF-8" standalone="no"?>
<svg
   xmlns:dc="http://purl.org/dc/elements/1.1/"
   xmlns:cc="http://creativecommons.org/ns#"
   xmlns:rdf="http://www.w3.org/1999/02/22-rdf-syntax-ns#"
   xmlns:svg="http://www.w3.org/2000/svg"
   xmlns="http://www.w3.org/2000/svg"
   xmlns:sodipodi="http://sodipodi.sourceforge.net/DTD/sodipodi-0.dtd"
   xmlns:inkscape="http://www.inkscape.org/namespaces/inkscape"
   version="1.1"
   id="Layer_1"
   x="0px"
   y="0px"
   viewBox="0 0 512 512"
   style="enable-background:new 0 0 512 512;"
   xml:space="preserve"
   sodipodi:docname="gamepad.svg"
   inkscape:version="1.0.2 (e86c8708, 2021-01-15)"><metadata
   id="metadata852"><rdf:RDF><cc:Work
       rdf:about=""><dc:format>image/svg+xml</dc:format><dc:type
         rdf:resource="http://purl.org/dc/dcmitype/StillImage" /></cc:Work></rdf:RDF></metadata><defs
   id="defs850"><inkscape:perspective
     sodipodi:type="inkscape:persp3d"
     inkscape:vp_x="0 : 256 : 1"
     inkscape:vp_y="0 : 1000 : 0"
     inkscape:vp_z="512 : 256 : 1"
     inkscape:persp3d-origin="256 : 170.66667 : 1"
     id="perspective844" /></defs><sodipodi:namedview
   pagecolor="#ffffff"
   bordercolor="#666666"
   borderopacity="1"
   objecttolerance="10"
   gridtolerance="10"
   guidetolerance="10"
   inkscape:pageopacity="0"
   inkscape:pageshadow="2"
   inkscape:window-width="1440"
   inkscape:window-height="900"
   id="namedview848"
   showgrid="false"
   inkscape:zoom="0.91584231"
   inkscape:cx="119.99113"
   inkscape:cy="371.549"
   inkscape:window-x="0"
   inkscape:window-y="0"
   inkscape:window-maximized="0"
   inkscape:current-layer="Layer_1"
   inkscape:document-rotation="0" />
<g
   id="g845"
   style="opacity:1;stroke-width:1.0015748;stroke-miterlimit:4;stroke-dasharray:none;fill:#ffffff;fill-opacity:1">
	<path
   d="m 474.4,303.9 c 2.2,16.1 3.4,30.8 3.4,43.7 0,9.3 -0.6,17.7 -1.8,24.9 -0.9,5.4 -2.1,10.2 -3.6,14.4 -1.1,3.1 -2.4,5.8 -3.7,8.1 -2,3.5 -4.3,6.2 -6.7,8.3 -2.5,2.1 -5.3,3.7 -8.8,4.9 -2.9,1 -5.5,1.4 -8.1,1.4 -3.2,0 -6.6,-0.6 -10.3,-2 -2.8,-1.1 -5.8,-2.6 -8.9,-4.5 -4.7,-3 -9.7,-7 -14.7,-11.9 -5.1,-4.9 -10.2,-10.7 -15.4,-17.1 -7.4,-9.3 -15.5,-17.3 -24.7,-24 -6.9,-5 -14.4,-9.2 -22.5,-12.6 -12.2,-5.1 -25.6,-8.4 -40.8,-10.5 -15.2,-2 -32.2,-2.9 -51.9,-2.9 -17.5,0 -33,0.6 -46.9,2.2 -10.5,1.2 -20.2,2.9 -29.2,5.3 -6.8,1.8 -13.2,4 -19.2,6.6 -9.1,4 -17.5,8.9 -25,14.9 -7.6,6 -14.4,13 -20.7,20.8 -4.6,5.7 -9.1,10.9 -13.6,15.5 -6.7,6.8 -13.2,12.1 -19.1,15.4 -3,1.7 -5.7,2.8 -8.3,3.6 -2.6,0.8 -5.1,1.1 -7.5,1.1 -2.7,0 -5.5,-0.4 -8.6,-1.5 -1.7,-0.6 -3.3,-1.4 -4.7,-2.3 -2.5,-1.7 -4.9,-4 -7.2,-7.3 -1.7,-2.5 -3.3,-5.5 -4.8,-9.2 -2.2,-5.4 -4,-12.2 -5.1,-20.1 -1.2,-7.9 -1.8,-16.9 -1.8,-26.8 0,-12.6 1,-26.7 3,-41.9 2,-15.2 4.9,-31.5 8.7,-48.5 4.9,-21.7 10.2,-41.3 16.2,-58.5 4.5,-12.9 9.3,-24.5 14.4,-34.7 7.7,-15.3 16,-27.3 24.8,-36 4.4,-4.4 8.9,-7.9 13.6,-10.8 4.7,-2.9 9.5,-5 14.6,-6.5 v 0 c 7.7,-2.2 15.7,-3.3 23.7,-3.3 h 0.5 c 5.5,0 10.9,0.8 17.1,2.2 4.6,1.1 9.7,2.5 15.4,4.1 8.5,2.4 18.3,5.1 29.8,7.2 11.5,2.1 24.8,3.6 40.2,3.6 13.7,0 25.7,-1.2 36.3,-2.9 15.9,-2.6 28.6,-6.5 39.1,-9.4 5.3,-1.5 10,-2.7 14.4,-3.5 4.4,-0.8 8.5,-1.3 12.6,-1.3 h 0.1 0.4 c 7.6,0 15.2,1.1 22.6,3.2 h -0.1 c 4.5,1.3 8.8,3.2 13,5.6 7.3,4.2 14.3,10.1 21,18 5,5.9 9.9,13 14.5,21.2 6.9,12.2 13.4,27 19.2,44 5.8,17 11.1,36.3 15.8,57.7 m 33.2,-7.2 c -5,-22.7 -10.7,-43.5 -17.2,-62.2 -4.9,-14.1 -10.2,-27.1 -16.1,-38.9 -8.9,-17.7 -19.2,-32.8 -31.4,-44.9 -6.1,-6 -12.7,-11.3 -19.8,-15.7 -7.1,-4.3 -14.7,-7.8 -22.7,-10.1 -10.4,-3 -21.2,-4.6 -32.1,-4.6 h -0.5 c -8.9,0 -17.1,1.3 -24.7,3.1 -5.8,1.3 -11.3,2.9 -16.9,4.5 -8.4,2.4 -16.9,4.7 -26.7,6.5 -9.8,1.8 -20.8,3 -34.1,3 -11.8,0 -21.8,-1 -30.8,-2.4 -13.4,-2.2 -24.4,-5.5 -35.6,-8.6 -5.6,-1.5 -11.2,-3 -17.2,-4.1 -5.9,-1.1 -12.2,-1.9 -18.9,-1.9 h -0.5 c -11.2,0 -22.3,1.5 -33.1,4.5 h -0.1 -0.1 c -7.1,2.1 -13.9,5 -20.4,8.7 -11.2,6.5 -21.2,15.2 -30,25.6 -6.6,7.8 -12.6,16.7 -18.1,26.4 -8.3,14.6 -15.4,31.2 -21.8,49.7 -6.4,18.5 -11.9,39 -16.9,61.3 -4,17.9 -7.1,35.2 -9.2,51.6 -2.3,16.5 -3.4,32 -3.4,46.4 0,11.5 0.7,22.3 2.3,32.3 1.2,7.6 2.8,14.7 5,21.4 1.7,5 3.7,9.8 6,14.3 3.6,6.8 8.1,12.9 13.7,18 5.6,5.1 12.2,9.2 19.6,11.7 6.5,2.3 13.2,3.4 19.7,3.4 7.8,0 15.4,-1.6 22.4,-4.3 5.3,-2 10.2,-4.6 14.9,-7.7 7.1,-4.6 13.6,-10.1 19.9,-16.2 6.2,-6.1 12.2,-12.9 18,-20.1 5.9,-7.3 11.8,-13 18.2,-17.6 4.8,-3.5 10,-6.3 16,-8.8 8.9,-3.7 19.5,-6.4 32.7,-8.1 13.2,-1.8 28.9,-2.6 47.6,-2.6 16.6,0 30.8,0.6 42.9,2 9.1,1 16.9,2.5 23.9,4.4 5.2,1.4 9.9,3 14.1,4.9 6.4,2.8 11.9,6.2 17.2,10.4 5.2,4.2 10.2,9.2 15.2,15.5 5.2,6.5 10.5,12.6 16.1,18.2 8.4,8.4 17.3,15.7 27.2,21.2 4.9,2.7 10.1,5 15.6,6.5 5.4,1.6 11.2,2.5 17,2.5 6.3,0 12.8,-1.1 19.1,-3.2 4.4,-1.5 8.5,-3.4 12.3,-5.8 6.7,-4.1 12.5,-9.5 17.1,-15.7 3.5,-4.6 6.4,-9.7 8.7,-15.1 3.5,-8.1 5.9,-16.9 7.4,-26.3 1.5,-9.4 2.2,-19.4 2.2,-30 0,-15 -1.3,-31.1 -3.7,-48.4"
   id="path833"
   style="fill:#ffffff;fill-opacity:1;stroke-width:1.00157;stroke-miterlimit:4;stroke-dasharray:none"
   sodipodi:nodetypes="cssccccscccccccscccccccsscccccsscsccsssssccssccsscscccccscccccccsscssscccssccccscsccscccscscccccccscccccsccsccccssc" />
	<circle
   cx="294.4"
   cy="221.9"
   r="21.3"
   id="circle835"
   style="stroke-width:1.0015748;stroke-miterlimit:4;stroke-dasharray:none;fill:#ffffff;fill-opacity:1" />
	<path
   d="M341.3,247.5c-11.7,0-21.3,9.5-21.3,21.3c0,11.7,9.5,21.3,21.3,21.3c11.8,0,21.3-9.5,21.3-21.2v-0.1   C362.6,257.1,353,247.5,341.3,247.5z"
   id="path837"
   style="stroke-width:1.0015748;stroke-miterlimit:4;stroke-dasharray:none;fill:#ffffff;fill-opacity:1" />
	<circle
   cx="341.3"
   cy="174.9"
   r="21.3"
   id="circle839"
   style="stroke-width:1.0015748;stroke-miterlimit:4;stroke-dasharray:none;fill:#ffffff;fill-opacity:1" />
	<circle
   cx="388.3"
   cy="221.9"
   r="21.3"
   id="circle841"
   style="stroke-width:1.0015748;stroke-miterlimit:4;stroke-dasharray:none;fill:#ffffff;fill-opacity:1" />
	<path
   d="M204.8,204.8h-34.1v-34.1c0-9.4-7.6-17.1-17.1-17.1c-9.4,0-17.1,7.6-17.1,17.1v34.1h-34.1c-9.4,0-17.1,7.6-17.1,17.1   c0,9.4,7.6,17.1,17.1,17.1h34.1v34.1c0,9.4,7.6,17.1,17.1,17.1c9.4,0,17.1-7.6,17.1-17.1V239h34.1c9.4,0,17.1-7.6,17.1-17.1   C221.9,212.4,214.2,204.8,204.8,204.8z"
   id="path843"
   style="stroke-width:1.0015748;stroke-miterlimit:4;stroke-dasharray:none;fill:#ffffff;fill-opacity:1" />
</g>
</svg>
