<?xml version="1.0" encoding="UTF-8" standalone="no"?>
<svg
   xmlns:dc="http://purl.org/dc/elements/1.1/"
   xmlns:cc="http://creativecommons.org/ns#"
   xmlns:rdf="http://www.w3.org/1999/02/22-rdf-syntax-ns#"
   xmlns:svg="http://www.w3.org/2000/svg"
   xmlns="http://www.w3.org/2000/svg"
   xmlns:sodipodi="http://sodipodi.sourceforge.net/DTD/sodipodi-0.dtd"
   xmlns:inkscape="http://www.inkscape.org/namespaces/inkscape"
   sodipodi:docname="logo.svg"
   inkscape:version="1.0.2 (e86c8708, 2021-01-15)"
   id="svg8"
   version="1.1"
   viewBox="0 0 264.58333 264.58334"
   height="1000"
   width="1000"
   inkscape:export-filename="/Users/maxime/Documents/MAX Design/MAX Codes/portfolYou Assets/favicon.png"
   inkscape:export-xdpi="191.99998"
   inkscape:export-ydpi="191.99998">
  <defs
     id="defs2" />
  <sodipodi:namedview
     inkscape:window-maximized="0"
     inkscape:window-y="25"
     inkscape:window-x="0"
     inkscape:window-height="945"
     inkscape:window-width="1920"
     units="px"
     showgrid="false"
     inkscape:document-rotation="0"
     inkscape:current-layer="layer1"
     inkscape:document-units="mm"
     inkscape:cy="552.46741"
     inkscape:cx="220.79355"
     inkscape:zoom="0.36474496"
     inkscape:pageshadow="2"
     inkscape:pageopacity="0.0"
     borderopacity="1.0"
     bordercolor="#666666"
     pagecolor="#ffffff"
     id="base"
     showguides="true" />
  <metadata
     id="metadata5">
    <rdf:RDF>
      <cc:Work
         rdf:about="">
        <dc:format>image/svg+xml</dc:format>
        <dc:type
           rdf:resource="http://purl.org/dc/dcmitype/StillImage" />
        <dc:title />
      </cc:Work>
    </rdf:RDF>
  </metadata>
  <g
     id="layer1"
     inkscape:groupmode="layer"
     inkscape:label="Layer 1">
    <path
       inkscape:connector-curvature="0"
       d="M 85.904289,32.597048 A 81.427777,81.427777 0 0 0 30.986298,54.134078 81.427777,81.427777 0 0 0 18.822543,159.81283 81.427777,81.427777 0 0 0 121.57401,187.34516 81.427777,81.427777 0 0 0 163.87993,89.744422 l -9.76958,3.052134 a 71.189144,71.189144 0 0 1 3.24123,21.231714 71.189144,71.189144 0 0 1 -71.189191,71.18924 71.189144,71.189144 0 0 1 -71.189271,-71.18924 71.189144,71.189144 0 0 1 71.189271,-71.189214 71.189144,71.189144 0 0 1 44.712331,15.793868 l 6.4314,-7.966612 A 81.427777,81.427777 0 0 0 85.904289,32.597048 Z"
       style="mix-blend-mode:normal;fill:#000000;fill-opacity:1;stroke:none;stroke-width:2.848;stroke-linecap:round;stroke-linejoin:round;stroke-miterlimit:4;stroke-dasharray:none;stroke-opacity:1"
       id="path855" />
    <path
       inkscape:connector-curvature="0"
       id="path855-4"
       style="mix-blend-mode:normal;fill:#000000;fill-opacity:1;stroke:none;stroke-width:2.848;stroke-linecap:round;stroke-linejoin:round;stroke-miterlimit:4;stroke-dasharray:none;stroke-opacity:1"
       d="M 175.16168,231.92117 A 81.427777,81.427777 0 0 0 230.95823,212.77498 81.427777,81.427777 0 0 0 247.67273,107.71982 81.427777,81.427777 0 0 0 146.2056,75.777381 81.427777,81.427777 0 0 0 99.725749,171.46086 l 9.892231,-2.62758 a 71.189144,71.189144 0 0 1 -2.32164,-21.35195 71.189144,71.189144 0 0 1 74.196,-68.049554 71.189144,71.189144 0 0 1 68.0497,74.196134 71.189144,71.189144 0 0 1 -74.19614,68.04953 71.189144,71.189144 0 0 1 -43.98872,-17.70933 l -6.76934,7.68154 a 81.427777,81.427777 0 0 0 50.57384,20.27152 z" />
  </g>
</svg>
