<?xml version="1.0" encoding="UTF-8" standalone="no"?>
<svg
   xmlns:dc="http://purl.org/dc/elements/1.1/"
   xmlns:cc="http://creativecommons.org/ns#"
   xmlns:rdf="http://www.w3.org/1999/02/22-rdf-syntax-ns#"
   xmlns:svg="http://www.w3.org/2000/svg"
   xmlns="http://www.w3.org/2000/svg"
   xmlns:sodipodi="http://sodipodi.sourceforge.net/DTD/sodipodi-0.dtd"
   xmlns:inkscape="http://www.inkscape.org/namespaces/inkscape"
   sodipodi:docname="wallpaper.svg"
   inkscape:version="1.0.2 (e86c8708, 2021-01-15)"
   id="svg8"
   version="1.1"
   viewBox="0 0 264.58333 264.58334"
   height="1000"
   width="1000"
   inkscape:export-filename="/Users/maxime/Documents/MAX Design/MAX Codes/portfolYou Assets/favicon.png"
   inkscape:export-xdpi="191.99998"
   inkscape:export-ydpi="191.99998">
  <defs
     id="defs2">
    <inkscape:perspective
       sodipodi:type="inkscape:persp3d"
       inkscape:vp_x="0 : 256 : 1"
       inkscape:vp_y="0 : 1000 : 0"
       inkscape:vp_z="512 : 256 : 1"
       inkscape:persp3d-origin="256 : 170.66667 : 1"
       id="perspective844" />
  </defs>
  <sodipodi:namedview
     inkscape:window-maximized="0"
     inkscape:window-y="25"
     inkscape:window-x="0"
     inkscape:window-height="952"
     inkscape:window-width="1920"
     units="px"
     showgrid="false"
     inkscape:document-rotation="0"
     inkscape:current-layer="layer1"
     inkscape:document-units="mm"
     inkscape:cy="533.51076"
     inkscape:cx="467.6074"
     inkscape:zoom="0.54229638"
     inkscape:pageshadow="2"
     inkscape:pageopacity="0.0"
     borderopacity="1.0"
     bordercolor="#666666"
     pagecolor="#ffffff"
     id="base"
     showguides="true" />
  <metadata
     id="metadata5">
    <rdf:RDF>
      <cc:Work
         rdf:about="">
        <dc:format>image/svg+xml</dc:format>
        <dc:type
           rdf:resource="http://purl.org/dc/dcmitype/StillImage" />
        <dc:title />
      </cc:Work>
    </rdf:RDF>
  </metadata>
  <g
     id="layer1"
     inkscape:groupmode="layer"
     inkscape:label="Layer 1">
    <g
       id="g876"
       transform="matrix(0.15382251,0,0,0.15382251,37.009822,137.6526)"
       style="fill:#ffffff;fill-opacity:0.3019608">
      <path
         inkscape:connector-curvature="0"
         d="M 85.904289,32.597048 A 81.427777,81.427777 0 0 0 30.986298,54.134078 81.427777,81.427777 0 0 0 18.822543,159.81283 81.427777,81.427777 0 0 0 121.57401,187.34516 81.427777,81.427777 0 0 0 163.87993,89.744422 l -9.76958,3.052134 a 71.189144,71.189144 0 0 1 3.24123,21.231714 71.189144,71.189144 0 0 1 -71.189191,71.18924 71.189144,71.189144 0 0 1 -71.189271,-71.18924 71.189144,71.189144 0 0 1 71.189271,-71.189214 71.189144,71.189144 0 0 1 44.712331,15.793868 l 6.4314,-7.966612 A 81.427777,81.427777 0 0 0 85.904289,32.597048 Z"
         style="mix-blend-mode:normal;fill:#ffffff;fill-opacity:0.3019608;stroke:none;stroke-width:2.848;stroke-linecap:round;stroke-linejoin:round;stroke-miterlimit:4;stroke-dasharray:none;stroke-opacity:1"
         id="path855" />
      <path
         inkscape:connector-curvature="0"
         id="path855-4"
         style="mix-blend-mode:normal;fill:#ffffff;fill-opacity:0.3019608;stroke:none;stroke-width:2.848;stroke-linecap:round;stroke-linejoin:round;stroke-miterlimit:4;stroke-dasharray:none;stroke-opacity:1"
         d="M 175.16168,231.92117 A 81.427777,81.427777 0 0 0 230.95823,212.77498 81.427777,81.427777 0 0 0 247.67273,107.71982 81.427777,81.427777 0 0 0 146.2056,75.777381 81.427777,81.427777 0 0 0 99.725749,171.46086 l 9.892231,-2.62758 a 71.189144,71.189144 0 0 1 -2.32164,-21.35195 71.189144,71.189144 0 0 1 74.196,-68.049554 71.189144,71.189144 0 0 1 68.0497,74.196134 71.189144,71.189144 0 0 1 -74.19614,68.04953 71.189144,71.189144 0 0 1 -43.98872,-17.70933 l -6.76934,7.68154 a 81.427777,81.427777 0 0 0 50.57384,20.27152 z" />
    </g>
    <path
       id="path833"
       style="mix-blend-mode:normal;fill:none;fill-opacity:1;stroke:#ffffff;stroke-width:1.32292;stroke-linejoin:round;stroke-miterlimit:10;stroke-dasharray:none;stroke-opacity:0.301961"
       d="m 149.26192,200.74738 a 12.032315,12.032314 21.60907 0 0 3.32929,-7.00676 12.032315,12.032314 21.60907 0 0 -6.75911,-12.23873 l -15.89676,16.35031 a 12.032315,12.032314 21.60907 0 0 12.45935,6.40707 12.032315,12.032314 21.60907 0 0 6.86723,-3.51189 z" />
    <polygon
       fill="#1D1D1B"
       stroke="#1D1D1B"
       stroke-width="37.6152"
       stroke-linecap="round"
       stroke-linejoin="round"
       stroke-miterlimit="10"
       points="259.216,29.942 330.27,173.919 489.16,197.007 374.185,309.08 401.33,467.31 259.216,392.612 117.104,467.31 144.25,309.08 29.274,197.007 188.165,173.919 "
       id="polygon833"
       style="fill:none;stroke:#ffffff;stroke-width:14.5139;stroke-miterlimit:10;stroke-dasharray:none;stroke-opacity:0.3"
       transform="matrix(0.08802576,0.0236527,-0.0236527,0.08802576,207.40369,124.72023)" />
    <g
       id="g845"
       style="opacity:1;fill:#ffffff;fill-opacity:0.301961;stroke-width:1.00157;stroke-miterlimit:4;stroke-dasharray:none"
       transform="matrix(0.05706479,-0.02603049,0.02603049,0.05706479,23.751959,227.4009)">
      <path
         d="m 474.4,303.9 c 2.2,16.1 3.4,30.8 3.4,43.7 0,9.3 -0.6,17.7 -1.8,24.9 -0.9,5.4 -2.1,10.2 -3.6,14.4 -1.1,3.1 -2.4,5.8 -3.7,8.1 -2,3.5 -4.3,6.2 -6.7,8.3 -2.5,2.1 -5.3,3.7 -8.8,4.9 -2.9,1 -5.5,1.4 -8.1,1.4 -3.2,0 -6.6,-0.6 -10.3,-2 -2.8,-1.1 -5.8,-2.6 -8.9,-4.5 -4.7,-3 -9.7,-7 -14.7,-11.9 -5.1,-4.9 -10.2,-10.7 -15.4,-17.1 -7.4,-9.3 -15.5,-17.3 -24.7,-24 -6.9,-5 -14.4,-9.2 -22.5,-12.6 -12.2,-5.1 -25.6,-8.4 -40.8,-10.5 -15.2,-2 -32.2,-2.9 -51.9,-2.9 -17.5,0 -33,0.6 -46.9,2.2 -10.5,1.2 -20.2,2.9 -29.2,5.3 -6.8,1.8 -13.2,4 -19.2,6.6 -9.1,4 -17.5,8.9 -25,14.9 -7.6,6 -14.4,13 -20.7,20.8 -4.6,5.7 -9.1,10.9 -13.6,15.5 -6.7,6.8 -13.2,12.1 -19.1,15.4 -3,1.7 -5.7,2.8 -8.3,3.6 -2.6,0.8 -5.1,1.1 -7.5,1.1 -2.7,0 -5.5,-0.4 -8.6,-1.5 -1.7,-0.6 -3.3,-1.4 -4.7,-2.3 -2.5,-1.7 -4.9,-4 -7.2,-7.3 -1.7,-2.5 -3.3,-5.5 -4.8,-9.2 -2.2,-5.4 -4,-12.2 -5.1,-20.1 -1.2,-7.9 -1.8,-16.9 -1.8,-26.8 0,-12.6 1,-26.7 3,-41.9 2,-15.2 4.9,-31.5 8.7,-48.5 4.9,-21.7 10.2,-41.3 16.2,-58.5 4.5,-12.9 9.3,-24.5 14.4,-34.7 7.7,-15.3 16,-27.3 24.8,-36 4.4,-4.4 8.9,-7.9 13.6,-10.8 4.7,-2.9 9.5,-5 14.6,-6.5 v 0 c 7.7,-2.2 15.7,-3.3 23.7,-3.3 h 0.5 c 5.5,0 10.9,0.8 17.1,2.2 4.6,1.1 9.7,2.5 15.4,4.1 8.5,2.4 18.3,5.1 29.8,7.2 11.5,2.1 24.8,3.6 40.2,3.6 13.7,0 25.7,-1.2 36.3,-2.9 15.9,-2.6 28.6,-6.5 39.1,-9.4 5.3,-1.5 10,-2.7 14.4,-3.5 4.4,-0.8 8.5,-1.3 12.6,-1.3 h 0.1 0.4 c 7.6,0 15.2,1.1 22.6,3.2 h -0.1 c 4.5,1.3 8.8,3.2 13,5.6 7.3,4.2 14.3,10.1 21,18 5,5.9 9.9,13 14.5,21.2 6.9,12.2 13.4,27 19.2,44 5.8,17 11.1,36.3 15.8,57.7 m 33.2,-7.2 c -5,-22.7 -10.7,-43.5 -17.2,-62.2 -4.9,-14.1 -10.2,-27.1 -16.1,-38.9 -8.9,-17.7 -19.2,-32.8 -31.4,-44.9 -6.1,-6 -12.7,-11.3 -19.8,-15.7 -7.1,-4.3 -14.7,-7.8 -22.7,-10.1 -10.4,-3 -21.2,-4.6 -32.1,-4.6 h -0.5 c -8.9,0 -17.1,1.3 -24.7,3.1 -5.8,1.3 -11.3,2.9 -16.9,4.5 -8.4,2.4 -16.9,4.7 -26.7,6.5 -9.8,1.8 -20.8,3 -34.1,3 -11.8,0 -21.8,-1 -30.8,-2.4 -13.4,-2.2 -24.4,-5.5 -35.6,-8.6 -5.6,-1.5 -11.2,-3 -17.2,-4.1 -5.9,-1.1 -12.2,-1.9 -18.9,-1.9 h -0.5 c -11.2,0 -22.3,1.5 -33.1,4.5 h -0.1 -0.1 c -7.1,2.1 -13.9,5 -20.4,8.7 -11.2,6.5 -21.2,15.2 -30,25.6 -6.6,7.8 -12.6,16.7 -18.1,26.4 -8.3,14.6 -15.4,31.2 -21.8,49.7 -6.4,18.5 -11.9,39 -16.9,61.3 -4,17.9 -7.1,35.2 -9.2,51.6 -2.3,16.5 -3.4,32 -3.4,46.4 0,11.5 0.7,22.3 2.3,32.3 1.2,7.6 2.8,14.7 5,21.4 1.7,5 3.7,9.8 6,14.3 3.6,6.8 8.1,12.9 13.7,18 5.6,5.1 12.2,9.2 19.6,11.7 6.5,2.3 13.2,3.4 19.7,3.4 7.8,0 15.4,-1.6 22.4,-4.3 5.3,-2 10.2,-4.6 14.9,-7.7 7.1,-4.6 13.6,-10.1 19.9,-16.2 6.2,-6.1 12.2,-12.9 18,-20.1 5.9,-7.3 11.8,-13 18.2,-17.6 4.8,-3.5 10,-6.3 16,-8.8 8.9,-3.7 19.5,-6.4 32.7,-8.1 13.2,-1.8 28.9,-2.6 47.6,-2.6 16.6,0 30.8,0.6 42.9,2 9.1,1 16.9,2.5 23.9,4.4 5.2,1.4 9.9,3 14.1,4.9 6.4,2.8 11.9,6.2 17.2,10.4 5.2,4.2 10.2,9.2 15.2,15.5 5.2,6.5 10.5,12.6 16.1,18.2 8.4,8.4 17.3,15.7 27.2,21.2 4.9,2.7 10.1,5 15.6,6.5 5.4,1.6 11.2,2.5 17,2.5 6.3,0 12.8,-1.1 19.1,-3.2 4.4,-1.5 8.5,-3.4 12.3,-5.8 6.7,-4.1 12.5,-9.5 17.1,-15.7 3.5,-4.6 6.4,-9.7 8.7,-15.1 3.5,-8.1 5.9,-16.9 7.4,-26.3 1.5,-9.4 2.2,-19.4 2.2,-30 0,-15 -1.3,-31.1 -3.7,-48.4"
         id="path833-2"
         style="fill:#ffffff;fill-opacity:0.301961;stroke-width:1.00157;stroke-miterlimit:4;stroke-dasharray:none"
         sodipodi:nodetypes="cssccccscccccccscccccccsscccccsscsccsssssccssccsscscccccscccccccsscssscccssccccscsccscccscscccccccscccccsccsccccssc" />
      <circle
         cx="294.39999"
         cy="221.89999"
         r="21.299999"
         id="circle835"
         style="fill:#ffffff;fill-opacity:0.301961;stroke-width:1.00157;stroke-miterlimit:4;stroke-dasharray:none" />
      <path
         d="m 341.3,247.5 c -11.7,0 -21.3,9.5 -21.3,21.3 0,11.7 9.5,21.3 21.3,21.3 11.8,0 21.3,-9.5 21.3,-21.2 v -0.1 c 0,-11.7 -9.6,-21.3 -21.3,-21.3 z"
         id="path837"
         style="fill:#ffffff;fill-opacity:0.301961;stroke-width:1.00157;stroke-miterlimit:4;stroke-dasharray:none" />
      <circle
         cx="341.29999"
         cy="174.89999"
         r="21.299999"
         id="circle839"
         style="fill:#ffffff;fill-opacity:0.301961;stroke-width:1.00157;stroke-miterlimit:4;stroke-dasharray:none" />
      <circle
         cx="388.29999"
         cy="221.89999"
         r="21.299999"
         id="circle841"
         style="fill:#ffffff;fill-opacity:0.301961;stroke-width:1.00157;stroke-miterlimit:4;stroke-dasharray:none" />
      <path
         d="m 204.8,204.8 h -34.1 v -34.1 c 0,-9.4 -7.6,-17.1 -17.1,-17.1 -9.4,0 -17.1,7.6 -17.1,17.1 v 34.1 h -34.1 c -9.4,0 -17.1,7.6 -17.1,17.1 0,9.4 7.6,17.1 17.1,17.1 h 34.1 v 34.1 c 0,9.4 7.6,17.1 17.1,17.1 9.4,0 17.1,-7.6 17.1,-17.1 V 239 h 34.1 c 9.4,0 17.1,-7.6 17.1,-17.1 0,-9.5 -7.7,-17.1 -17.1,-17.1 z"
         id="path843"
         style="fill:#ffffff;fill-opacity:0.301961;stroke-width:1.00157;stroke-miterlimit:4;stroke-dasharray:none" />
    </g>
    <rect
       style="fill:none;fill-opacity:1;stroke:#ffffff;stroke-width:1.32292;stroke-linejoin:round;stroke-miterlimit:10;stroke-dasharray:none;stroke-opacity:0.301961"
       id="rect902"
       width="17.514465"
       height="17.514462"
       x="1.5705327"
       y="180.29707"
       ry="3.2660289"
       transform="rotate(-51.661347)" />
    <g
       transform="matrix(0.03157869,0,0,-0.03157869,17.800845,-54.372468)"
       id="g910"
       style="fill:#ffffff;fill-opacity:0.3019608;stroke:none;stroke-width:60;stroke-miterlimit:10;stroke-dasharray:none;stroke-opacity:1">
      <g
         id="g928"
         transform="matrix(0.08281258,0.03166691,-0.03166691,0.08281258,4188.4914,-2931.3664)"
         style="fill:#ffffff;fill-opacity:0.301961;stroke:none;stroke-width:676.737;stroke-miterlimit:10;stroke-dasharray:none;stroke-opacity:1">
        <path
           d="M 3635.8,4574.1 C 2760,4491.7 2031.8,3911 1740.5,3060.1 l -49.8,-143.7 -203.1,-101.6 c -300.9,-149.5 -751.2,-253 -1109.6,-253 -80.5,0 -139.9,-9.6 -166.7,-28.8 -67.1,-46 -111.1,-191.6 -111.1,-364.1 0,-128.4 7.7,-170.6 53.7,-260.6 69,-141.8 210.8,-272.1 383.3,-352.6 C 838.1,1413.9 1516.5,1251 1897.8,1228 l 203.1,-13.4 86.2,-99.7 c 130.3,-151.4 184,-239.6 184,-300.9 0,-95.8 -76.7,-210.8 -237.6,-360.3 -525.1,-484.8 -711,-711 -864.3,-1042.5 -596,-1287.8 264.5,-2826.7 1927.9,-3447.6 691.8,-258.7 1400.9,-358.4 2270.9,-318.1 2025.7,90.1 3384.4,841.3 4043.6,2230.7 241.5,509.8 362.2,1050.2 385.2,1705.6 28.8,889.2 -132.2,1809.1 -337.3,1914.5 -78.6,40.3 -210.8,38.3 -327.7,-5.7 -53.7,-21.1 -231.9,-109.2 -398.6,-199.3 C 8221.9,959.8 7664.2,772 6995.3,670.4 c -285.5,-42.2 -862.4,-42.2 -1069.3,0 -199.3,42.2 -383.3,132.2 -421.6,207 -28.7,51.7 -26.8,63.2 9.6,145.7 23,49.8 90.1,168.6 151.4,264.5 136.1,208.9 191.6,320 258.7,507.9 199.3,551.9 178.2,1186.2 -55.6,1680.7 -103.5,220.4 -174.4,325.8 -333.5,492.5 -216.6,226.1 -473.3,381.4 -804.9,490.6 -293.3,95.6 -766.6,145.4 -1094.3,114.8 z m 640,-327.7 c 459.9,-61.3 891.1,-285.5 1126.8,-586.4 239.6,-308.5 345,-628.6 345,-1059.8 1.9,-429.3 -80.5,-720.6 -304.7,-1086.6 -189.7,-308.5 -231.9,-389 -253,-488.7 -67.1,-300.9 184,-550 659.3,-651.6 159.1,-34.5 254.9,-40.2 574.9,-40.2 450.4,0 762.7,40.2 1228.4,159.1 500.2,126.5 780,243.4 1537,636.3 226.1,116.9 210.8,122.6 270.2,-99.7 130.3,-481 172.5,-1397.1 88.1,-1945.1 -226.1,-1485.3 -1149.8,-2508.7 -2633.1,-2915 -793.4,-216.6 -1847.4,-285.5 -2633.1,-170.6 -1326.2,195.5 -2424.3,950.5 -2775,1908.7 -82.4,222.3 -113.1,406.3 -113.1,659.2 0,509.8 210.8,963.9 638.2,1370.2 580.7,550 626.7,611.3 642,858.5 9.6,149.5 -40.2,262.6 -207,459.9 l -115,138 57.5,170.6 c 76.7,226.1 90.1,371.8 49.8,492.5 -17.2,53.7 -109.2,199.3 -214.6,343 -291.3,392.9 -287.5,385.2 -180.1,655.4 130.3,322 381.4,651.6 655.4,858.5 406.3,306.9 921.8,416.2 1556.1,333.8 z M 1840.1,2441.1 c 49.8,-76.7 147.6,-214.6 216.6,-310.5 120.7,-164.8 126.5,-176.3 116.9,-258.7 -5.8,-47.9 -30.7,-143.7 -53.7,-214.6 L 2075.8,1527 h -82.4 c -345,0 -1193.9,208.9 -1410.5,348.8 C 471.7,1946.7 397,2065.5 397,2172.9 v 76.7 l 226.1,21.1 c 122.7,13.4 289.4,36.4 368,53.7 182.1,38.3 507.8,145.7 626.7,207 49.8,26.8 101.6,47.9 111.1,47.9 11.5,-0.2 59.5,-61.5 111.2,-138.2 z"
           id="path906"
           style="fill:#ffffff;fill-opacity:0.301961;stroke:none;stroke-width:676.737;stroke-miterlimit:10;stroke-dasharray:none;stroke-opacity:1" />
        <path
           d="m 3032.1,3261.3 c -30.7,-17.2 -72.8,-46 -93.9,-63.2 -97.7,-88.2 -149.5,-306.6 -109.2,-456.1 90.1,-337.3 461.9,-394.8 619,-97.7 61.3,113.1 61.3,335.4 0,448.4 -86.3,162.9 -279.8,241.4 -415.9,168.6 z"
           id="path908"
           style="fill:#ffffff;fill-opacity:0.301961;stroke:none;stroke-width:676.737;stroke-miterlimit:10;stroke-dasharray:none;stroke-opacity:1" />
      </g>
    </g>
    <text
       xml:space="preserve"
       style="font-style:normal;font-weight:normal;font-size:17.6389px;line-height:1.25;font-family:sans-serif;fill:#ffffff;fill-opacity:0.301961;stroke:none;stroke-width:0.264583"
       x="153.89368"
       y="284.22971"
       id="text933"
       transform="rotate(-14.57081)"><tspan
         sodipodi:role="line"
         id="tspan931"
         x="153.89368"
         y="284.22971"
         style="font-style:normal;font-variant:normal;font-weight:300;font-stretch:normal;font-size:17.6389px;font-family:Noteworthy;-inkscape-font-specification:'Noteworthy Light';fill:#ffffff;fill-opacity:0.301961;stroke-width:0.264583">&lt;/&gt;</tspan></text>
    <path
       style="fill:none;stroke:#ffffff;stroke-width:0.989218;stroke-linecap:butt;stroke-linejoin:round;stroke-miterlimit:4;stroke-dasharray:none;stroke-opacity:0.3019608"
       d="m 236.11365,48.544986 -16.37483,23.00849 8.31943,3.066753 -3.16889,20.295289 13.22748,-23.41503 -8.62382,-3.191541 z"
       id="path935"
       sodipodi:nodetypes="ccccccc" />
    <g
       id="g1106"
       transform="matrix(0.04480274,0.01208344,-0.01208344,0.04480274,42.786882,61.936896)"
       style="fill:#ffffff;fill-opacity:0.301961;stroke:none;stroke-width:37.6034;stroke-miterlimit:4;stroke-dasharray:none;stroke-opacity:1">
      <g
         id="g1004"
         style="fill:#ffffff;fill-opacity:0.301961;stroke:none;stroke-width:37.6034;stroke-miterlimit:4;stroke-dasharray:none;stroke-opacity:1">
        <g
           id="g1002"
           style="fill:#ffffff;fill-opacity:0.301961;stroke:none;stroke-width:37.6034;stroke-miterlimit:4;stroke-dasharray:none;stroke-opacity:1">
          <path
             d="m 133.532,437.482 c -0.145,-0.712 -0.356,-1.414 -0.634,-2.093 -0.278,-0.668 -0.623,-1.313 -1.024,-1.914 -0.401,-0.612 -0.868,-1.18 -1.38,-1.692 -0.512,-0.512 -1.08,-0.979 -1.692,-1.38 -0.601,-0.401 -1.258,-0.746 -1.926,-1.024 -0.668,-0.278 -1.369,-0.501 -2.081,-0.634 -1.436,-0.289 -2.916,-0.289 -4.352,0 -0.701,0.134 -1.402,0.356 -2.081,0.634 -0.668,0.278 -1.313,0.623 -1.914,1.024 -0.612,0.401 -1.18,0.868 -1.692,1.38 -0.512,0.512 -0.979,1.08 -1.391,1.692 -0.401,0.601 -0.746,1.247 -1.024,1.914 -0.278,0.679 -0.49,1.38 -0.634,2.093 -0.145,0.712 -0.211,1.447 -0.211,2.17 0,0.723 0.067,1.458 0.211,2.17 0.145,0.712 0.356,1.414 0.634,2.093 0.278,0.668 0.623,1.313 1.024,1.914 0.412,0.612 0.879,1.18 1.391,1.692 0.512,0.512 1.08,0.979 1.692,1.38 0.601,0.401 1.247,0.746 1.914,1.024 0.679,0.278 1.38,0.501 2.081,0.634 0.723,0.145 1.458,0.223 2.182,0.223 0.723,0 1.458,-0.078 2.17,-0.223 0.712,-0.134 1.414,-0.356 2.081,-0.634 0.668,-0.278 1.325,-0.623 1.926,-1.024 0.612,-0.401 1.18,-0.868 1.692,-1.38 0.512,-0.512 0.979,-1.08 1.38,-1.692 0.401,-0.601 0.746,-1.247 1.024,-1.914 0.278,-0.679 0.49,-1.38 0.634,-2.093 0.145,-0.712 0.223,-1.447 0.223,-2.17 0,-0.723 -0.079,-1.458 -0.223,-2.17 z"
             id="path1000"
             style="fill:#ffffff;fill-opacity:0.301961;stroke:none;stroke-width:37.6034;stroke-miterlimit:4;stroke-dasharray:none;stroke-opacity:1" />
        </g>
      </g>
      <g
         id="g1010"
         style="fill:#ffffff;fill-opacity:0.301961;stroke:none;stroke-width:37.6034;stroke-miterlimit:4;stroke-dasharray:none;stroke-opacity:1">
        <g
           id="g1008"
           style="fill:#ffffff;fill-opacity:0.301961;stroke:none;stroke-width:37.6034;stroke-miterlimit:4;stroke-dasharray:none;stroke-opacity:1">
          <path
             d="M 500.87,94.609 H 133.565 V 72.348 c 0,-6.147 -4.983,-11.13 -11.13,-11.13 H 55.652 c -6.147,0 -11.13,4.983 -11.13,11.13 V 94.609 H 11.13 C 4.983,94.609 0,99.592 0,105.739 v 333.913 c 0,6.147 4.983,11.13 11.13,11.13 h 77.913 c 6.147,0 11.13,-4.983 11.13,-11.13 0,-6.147 -4.983,-11.13 -11.13,-11.13 H 22.261 V 116.87 h 33.391 66.783 367.304 V 428.522 H 155.873 c -6.147,0 -11.13,4.983 -11.13,11.13 0,6.147 4.983,11.13 11.13,11.13 H 500.87 c 6.146,0 11.13,-4.983 11.13,-11.13 V 105.739 c 0,-6.147 -4.984,-11.13 -11.13,-11.13 z m -389.566,0 H 66.783 v -11.13 h 44.522 v 11.13 z"
             id="path1006"
             style="fill:#ffffff;fill-opacity:0.301961;stroke:none;stroke-width:37.6034;stroke-miterlimit:4;stroke-dasharray:none;stroke-opacity:1" />
        </g>
      </g>
      <g
         id="g1016"
         style="fill:#ffffff;fill-opacity:0.301961;stroke:none;stroke-width:37.6034;stroke-miterlimit:4;stroke-dasharray:none;stroke-opacity:1">
        <g
           id="g1014"
           style="fill:#ffffff;fill-opacity:0.301961;stroke:none;stroke-width:37.6034;stroke-miterlimit:4;stroke-dasharray:none;stroke-opacity:1">
          <path
             d="m 367.304,172.522 c -55.236,0 -100.174,44.938 -100.174,100.174 0,55.236 44.938,100.174 100.174,100.174 55.236,0 100.174,-44.938 100.174,-100.174 0,-55.236 -44.938,-100.174 -100.174,-100.174 z m 0,178.087 c -42.961,0 -77.913,-34.952 -77.913,-77.913 0,-42.961 34.952,-77.913 77.913,-77.913 42.961,0 77.913,34.952 77.913,77.913 0,42.961 -34.951,77.913 -77.913,77.913 z"
             id="path1012"
             style="fill:#ffffff;fill-opacity:0.301961;stroke:none;stroke-width:37.6034;stroke-miterlimit:4;stroke-dasharray:none;stroke-opacity:1" />
        </g>
      </g>
      <g
         id="g1022"
         style="fill:#ffffff;fill-opacity:0.301961;stroke:none;stroke-width:37.6034;stroke-miterlimit:4;stroke-dasharray:none;stroke-opacity:1">
        <g
           id="g1020"
           style="fill:#ffffff;fill-opacity:0.301961;stroke:none;stroke-width:37.6034;stroke-miterlimit:4;stroke-dasharray:none;stroke-opacity:1">
          <path
             d="m 411.826,261.553 c -6.146,0 -11.13,4.995 -11.13,11.143 0,6.148 4.984,11.13 11.13,11.13 6.146,0 11.13,-4.983 11.13,-11.13 v -0.026 c 10e-4,-6.147 -4.984,-11.117 -11.13,-11.117 z"
             id="path1018"
             style="fill:#ffffff;fill-opacity:0.301961;stroke:none;stroke-width:37.6034;stroke-miterlimit:4;stroke-dasharray:none;stroke-opacity:1" />
        </g>
      </g>
      <g
         id="g1028"
         style="fill:#ffffff;fill-opacity:0.301961;stroke:none;stroke-width:37.6034;stroke-miterlimit:4;stroke-dasharray:none;stroke-opacity:1">
        <g
           id="g1026"
           style="fill:#ffffff;fill-opacity:0.301961;stroke:none;stroke-width:37.6034;stroke-miterlimit:4;stroke-dasharray:none;stroke-opacity:1">
          <path
             d="m 407.752,234.469 c -10.469,-11.074 -25.213,-17.426 -40.448,-17.426 -6.146,0 -11.13,4.983 -11.13,11.13 0,6.147 4.984,11.13 11.13,11.13 9.276,0 17.896,3.714 24.272,10.458 2.189,2.316 5.136,3.484 8.091,3.484 2.744,0 5.493,-1.008 7.643,-3.042 4.468,-4.222 4.665,-11.266 0.442,-15.734 z"
             id="path1024"
             style="fill:#ffffff;fill-opacity:0.301961;stroke:none;stroke-width:37.6034;stroke-miterlimit:4;stroke-dasharray:none;stroke-opacity:1" />
        </g>
      </g>
      <g
         id="g1034"
         style="fill:#ffffff;fill-opacity:0.301961;stroke:none;stroke-width:37.6034;stroke-miterlimit:4;stroke-dasharray:none;stroke-opacity:1">
        <g
           id="g1032"
           style="fill:#ffffff;fill-opacity:0.301961;stroke:none;stroke-width:37.6034;stroke-miterlimit:4;stroke-dasharray:none;stroke-opacity:1">
          <path
             d="m 133.565,206.284 c -36.62,0 -66.412,29.793 -66.412,66.412 0,36.619 29.793,66.412 66.412,66.412 36.619,0 66.412,-29.793 66.412,-66.412 0,-36.619 -29.792,-66.412 -66.412,-66.412 z m 0,110.563 c -24.344,0 -44.151,-19.807 -44.151,-44.151 0,-24.344 19.805,-44.151 44.151,-44.151 24.346,0 44.151,19.806 44.151,44.151 0,24.345 -19.806,44.151 -44.151,44.151 z"
             id="path1030"
             style="fill:#ffffff;fill-opacity:0.301961;stroke:none;stroke-width:37.6034;stroke-miterlimit:4;stroke-dasharray:none;stroke-opacity:1" />
        </g>
      </g>
      <g
         id="g1036"
         style="fill:#ffffff;fill-opacity:0.301961;stroke:none;stroke-width:37.6034;stroke-miterlimit:4;stroke-dasharray:none;stroke-opacity:1" />
      <g
         id="g1038"
         style="fill:#ffffff;fill-opacity:0.301961;stroke:none;stroke-width:37.6034;stroke-miterlimit:4;stroke-dasharray:none;stroke-opacity:1" />
      <g
         id="g1040"
         style="fill:#ffffff;fill-opacity:0.301961;stroke:none;stroke-width:37.6034;stroke-miterlimit:4;stroke-dasharray:none;stroke-opacity:1" />
      <g
         id="g1042"
         style="fill:#ffffff;fill-opacity:0.301961;stroke:none;stroke-width:37.6034;stroke-miterlimit:4;stroke-dasharray:none;stroke-opacity:1" />
      <g
         id="g1044"
         style="fill:#ffffff;fill-opacity:0.301961;stroke:none;stroke-width:37.6034;stroke-miterlimit:4;stroke-dasharray:none;stroke-opacity:1" />
      <g
         id="g1046"
         style="fill:#ffffff;fill-opacity:0.301961;stroke:none;stroke-width:37.6034;stroke-miterlimit:4;stroke-dasharray:none;stroke-opacity:1" />
      <g
         id="g1048"
         style="fill:#ffffff;fill-opacity:0.301961;stroke:none;stroke-width:37.6034;stroke-miterlimit:4;stroke-dasharray:none;stroke-opacity:1" />
      <g
         id="g1050"
         style="fill:#ffffff;fill-opacity:0.301961;stroke:none;stroke-width:37.6034;stroke-miterlimit:4;stroke-dasharray:none;stroke-opacity:1" />
      <g
         id="g1052"
         style="fill:#ffffff;fill-opacity:0.301961;stroke:none;stroke-width:37.6034;stroke-miterlimit:4;stroke-dasharray:none;stroke-opacity:1" />
      <g
         id="g1054"
         style="fill:#ffffff;fill-opacity:0.301961;stroke:none;stroke-width:37.6034;stroke-miterlimit:4;stroke-dasharray:none;stroke-opacity:1" />
      <g
         id="g1056"
         style="fill:#ffffff;fill-opacity:0.301961;stroke:none;stroke-width:37.6034;stroke-miterlimit:4;stroke-dasharray:none;stroke-opacity:1" />
      <g
         id="g1058"
         style="fill:#ffffff;fill-opacity:0.301961;stroke:none;stroke-width:37.6034;stroke-miterlimit:4;stroke-dasharray:none;stroke-opacity:1" />
      <g
         id="g1060"
         style="fill:#ffffff;fill-opacity:0.301961;stroke:none;stroke-width:37.6034;stroke-miterlimit:4;stroke-dasharray:none;stroke-opacity:1" />
      <g
         id="g1062"
         style="fill:#ffffff;fill-opacity:0.301961;stroke:none;stroke-width:37.6034;stroke-miterlimit:4;stroke-dasharray:none;stroke-opacity:1" />
      <g
         id="g1064"
         style="fill:#ffffff;fill-opacity:0.301961;stroke:none;stroke-width:37.6034;stroke-miterlimit:4;stroke-dasharray:none;stroke-opacity:1" />
    </g>
    <path
       sodipodi:type="star"
       style="fill:none;fill-opacity:1;stroke:#ffffff;stroke-width:3.08861;stroke-linejoin:round;stroke-miterlimit:4;stroke-dasharray:none;stroke-opacity:0.301961"
       id="path1108"
       sodipodi:sides="3"
       sodipodi:cx="169.05186"
       sodipodi:cy="86.347603"
       sodipodi:r1="36.009727"
       sodipodi:r2="35.084473"
       sodipodi:arg1="-2.1028269"
       sodipodi:arg2="-1.7656361"
       inkscape:flatsided="false"
       inkscape:rounded="-0.024899796"
       inkscape:randomized="0"
       d="m 150.7847,55.315184 c -0.0961,0.281976 11.73369,-3.241377 11.47448,-3.38821 -1.18584,-0.671739 43.69844,35.142824 42.80113,34.117006 -0.19614,-0.22423 -3.05973,11.782368 -2.80297,11.631302 1.17467,-0.691102 -52.28379,20.272548 -50.94675,20.008358 0.29225,-0.0577 -8.67397,-8.54099 -8.67152,-8.24309 0.0112,1.36284 8.58536,-55.415365 8.14563,-54.125366 z"
       inkscape:transform-center-x="2.5851194"
       inkscape:transform-center-y="-0.93888669"
       transform="matrix(0.17017427,0.3930641,-0.3930641,0.17017427,80.029175,-56.057441)" />
  </g>
</svg>
