<?xml version="1.0" encoding="UTF-8" standalone="no"?>
<svg
   xmlns:dc="http://purl.org/dc/elements/1.1/"
   xmlns:cc="http://creativecommons.org/ns#"
   xmlns:rdf="http://www.w3.org/1999/02/22-rdf-syntax-ns#"
   xmlns:svg="http://www.w3.org/2000/svg"
   xmlns="http://www.w3.org/2000/svg"
   xmlns:sodipodi="http://sodipodi.sourceforge.net/DTD/sodipodi-0.dtd"
   xmlns:inkscape="http://www.inkscape.org/namespaces/inkscape"
   width="1640"
   height="624"
   viewBox="0 0 433.91665 165.10001"
   version="1.1"
   id="svg8"
   sodipodi:docname="SSC_Cover.svg"
   inkscape:version="1.0beta2 (2b71d25, 2019-12-03)"
   inkscape:export-filename="/Users/Maxime/Documents/GDC/Projects/SSC/SSC Instagram/SSC_Cover.png"
   inkscape:export-xdpi="96"
   inkscape:export-ydpi="96">
  <defs
     id="defs2">
    <rect
       x="1148.8156"
       y="485.19812"
       width="1214.2789"
       height="563.49725"
       id="rect1619" />
    <rect
       x="1012.5328"
       y="443.7952"
       width="1005.536"
       height="494.77167"
       id="rect1613" />
    <rect
       x="517.66931"
       y="512.22015"
       width="91.982658"
       height="291.4003"
       id="rect891" />
    <rect
       x="395.17444"
       y="566.10638"
       width="339.32538"
       height="133.69926"
       id="rect3254" />
  </defs>
  <sodipodi:namedview
     id="base"
     pagecolor="#ffffff"
     bordercolor="#666666"
     borderopacity="1.0"
     inkscape:pageopacity="0.0"
     inkscape:pageshadow="2"
     inkscape:zoom="0.36894333"
     inkscape:cx="854.53072"
     inkscape:cy="348.00324"
     inkscape:document-units="mm"
     inkscape:current-layer="layer1"
     inkscape:document-rotation="0"
     showgrid="false"
     units="px"
     inkscape:window-width="1280"
     inkscape:window-height="800"
     inkscape:window-x="0"
     inkscape:window-y="0"
     inkscape:window-maximized="0"
     inkscape:snap-bbox="true"
     inkscape:lockguides="true" />
  <metadata
     id="metadata5">
    <rdf:RDF>
      <cc:Work
         rdf:about="">
        <dc:format>image/svg+xml</dc:format>
        <dc:type
           rdf:resource="http://purl.org/dc/dcmitype/StillImage" />
        <dc:title />
      </cc:Work>
    </rdf:RDF>
  </metadata>
  <g
     inkscape:label="Layer 1"
     inkscape:groupmode="layer"
     id="layer1">
    <rect
       y="-3.0517579e-06"
       x="5.0862632e-06"
       height="165.10001"
       width="433.91666"
       id="rect850"
       style="fill:#1fca32;stroke:none;stroke-width:2.04751;stroke-linecap:round;stroke-miterlimit:4;stroke-dasharray:none;stroke-opacity:1" />
    <text
       xml:space="preserve"
       id="text3252"
       style="font-style:normal;font-weight:normal;font-size:10.58329999999999949px;line-height:1.25;font-family:sans-serif;white-space:pre;shape-inside:url(#rect3254);fill:#00b450;fill-opacity:1;stroke:#007850;stroke-opacity:1;stroke-width:2;stroke-miterlimit:4;stroke-dasharray:none;" />
    <text
       xml:space="preserve"
       id="text889"
       style="font-size:10.58329999999999949px;line-height:1.25;font-family:sans-serif;text-align:center;white-space:pre;shape-inside:url(#rect891);fill:#00b450;fill-opacity:1;stroke:#007850;stroke-opacity:1;stroke-width:2;stroke-miterlimit:4;stroke-dasharray:none;" />
    <path
       id="path851"
       style="fill:#ffffff;fill-opacity:1;stroke:none;stroke-width:0.5;stroke-linecap:round;stroke-linejoin:round;stroke-miterlimit:4;stroke-dasharray:none;stroke-opacity:1"
       d="m 201.9767,100.35595 c 13.51471,-7.783754 6.25297,-54.559109 42.29764,-43.247876 -9.5012,3.311838 -14.90553,12.089665 -15.56078,20.784735 2.31308,-8.156092 7.7949,-15.182643 15.68592,-19.259787 -0.85421,6.184966 4.39637,12.280884 0.008,20.548378 -5.21234,10.098195 -18.20029,15.076182 -23.88214,16.541308 -5.99503,1.545881 -13.54563,3.270435 -18.54931,4.633242 z"
       inkscape:connector-curvature="0"
       sodipodi:nodetypes="cccccsc" />
    <path
       sodipodi:nodetypes="cccccsc"
       inkscape:connector-curvature="0"
       d="m 280.95105,89.361124 c -5.38995,-5.907701 -28.00992,2.893709 -26.32632,-16.404025 2.70753,4.391829 7.69963,6.128635 12.12588,5.496572 -4.33943,-0.257584 -8.46318,-2.226581 -11.37611,-5.727632 3.19133,-0.25526 5.66394,-3.557532 10.28825,-2.273422 5.63206,1.494884 9.5589,7.448634 10.91996,10.131924 1.43608,2.831192 3.1334,6.421579 4.36834,8.776583 z"
       style="fill:#ffffff;fill-opacity:1;stroke:none;stroke-width:0.5;stroke-linecap:round;stroke-linejoin:round;stroke-miterlimit:4;stroke-dasharray:none;stroke-opacity:1"
       id="path871" />
    <path
       id="path875"
       style="fill:#ffffff;fill-opacity:1;stroke:none;stroke-width:0.5;stroke-linecap:round;stroke-linejoin:round;stroke-miterlimit:4;stroke-dasharray:none;stroke-opacity:1"
       d="m 270.81314,51.71309 c -4.37709,3.021377 -17.71747,-6.068125 -19.51528,6.688985 2.41193,-2.440629 5.90685,-2.818797 8.68047,-1.746629 -2.85053,-0.482676 -5.81751,0.175943 -8.2292,2.008596 2.0298,0.64313 3.13772,3.15318 6.32654,3.013305 3.87339,-0.125601 7.30928,-3.395841 8.59292,-4.930889 1.35442,-1.619655 2.99177,-3.692172 4.14455,-5.033368 z"
       inkscape:connector-curvature="0"
       sodipodi:nodetypes="cccccsc" />
    <path
       id="path932"
       style="opacity:1;fill:#ffffff;fill-opacity:1;stroke:none;stroke-width:0.5;stroke-linecap:round;stroke-linejoin:round;stroke-miterlimit:4;stroke-dasharray:none;stroke-opacity:1"
       d="m 224.17725,44.126159 a 38.973166,38.973166 0 0 0 -44.93799,31.865866 38.973166,38.973166 0 0 0 31.85948,44.975445 38.973166,38.973166 0 0 0 44.93593,-31.632147 36.374956,36.374956 0 0 1 -41.81102,28.831317 36.374956,36.374956 0 0 1 -29.73549,-41.977029 36.374956,36.374956 0 0 1 41.97703,-29.735479 36.374956,36.374956 0 0 1 27.76411,22.629089 38.973166,38.973166 0 0 0 -30.0146,-24.950672 38.973166,38.973166 0 0 0 -0.0374,-0.006 z"
       inkscape:connector-curvature="0" />
    <text
       xml:space="preserve"
       id="text1611"
       style="font-size:10.58329999999999949px;line-height:1.1;font-family:sans-serif;text-align:center;white-space:pre;shape-inside:url(#rect1613);fill:#00b450;fill-opacity:1;stroke:#007850;stroke-opacity:1;stroke-width:2;stroke-miterlimit:4;stroke-dasharray:none;" />
    <text
       xml:space="preserve"
       id="text1617"
       style="font-size:10.58329999999999949px;line-height:1.1;font-family:sans-serif;text-align:center;white-space:pre;shape-inside:url(#rect1619);fill:#00b450;fill-opacity:1;stroke:#007850;stroke-opacity:1;stroke-width:2;stroke-miterlimit:4;stroke-dasharray:none;" />
  </g>
</svg>
